<?xml version="1.0" encoding="UTF-8"?>
<svg id="Layer_1" xmlns="http://www.w3.org/2000/svg" version="1.1" viewBox="0 0 352 432" style="fill: #212121">
  <!-- Generator: Adobe Illustrator 29.3.1, SVG Export Plug-In . SVG Version: 2.1.0 Build 151)  -->
  <path d="M284.2,361.1l-1.2-19.2-6.8-105.2-1.6-25.2-.9-13.9H54.4l-10.5,163.6c-2,30.8,18.4,56.5,45.5,56.5h149.2c25.4,0,44.8-22.4,45.7-50.5,0-2,0-4,0-6ZM119.4,250.1l-8,120.2c-.5,7.5-6.9,13.1-14.4,12.6-7.5-.5-13.1-6.9-12.6-14.4l8-120.2c.5-7.5,6.9-13.1,14.4-12.6,7.1.5,12.6,6.4,12.6,13.5s0,.6,0,.9h0ZM177.6,370c0,7.5-6.1,13.5-13.5,13.5s-7.1-1.5-9.6-4c-2.5-2.4-4-5.8-4-9.6v-120.5c0-7.5,6-13.5,13.5-13.5s7.1,1.5,9.6,4,4,5.8,4,9.6v120.5ZM233.5,383c-7.5.4-13.8-5.3-14.2-12.8l-6.7-120.3c-.4-7.5,5.3-13.8,12.8-14.3s13.8,5.3,14.3,12.8l6.7,120.3c.4,7.5-5.3,13.8-12.8,14.2Z"/>
  <path d="M82.4,174.6c-.5,0-.9,0-1.4,0-19.5-.3-36.2-5.5-48.1-15-6.1-4.8-10.9-10.8-14.3-17.8-7.7-15.9-6.9-35.7,1.9-51.5,9.7-17.3,27.9-28.1,48.1-29.3,2.7-10.7,8.6-24.6,21.3-35.3,12.5-10.6,35.2-21.1,72.8-10.9,11.6,3.1,22.4,8.4,32.2,15.8,15.7-4.3,29.8-3.8,42,1.5l1.3.6c13.1,6.2,21.4,21,24.6,43.8,21.1,2.7,39,15.2,46.9,33.7,5.3,12.3,7.9,31.4-2,44.8h0c-3.7,5-8.8,8.8-15.1,11.5-19.4,8.2-46.5,4-71.9-10.8-10.3,4.4-24.9,8.7-42.4,8.3-17.3-.3-31.6-4.9-41.9-9.8-10.4,8.6-29.2,20.4-54.1,20.4h0ZM72.3,81.9c-14,0-26.8,7-33.3,18.6-5.6,9.9-6.1,22.3-1.3,32.1,2,4.1,4.8,7.6,8.4,10.4,8.2,6.5,20.7,10.2,35.4,10.4,23.5.4,40.1-13.5,46.2-19.5l5.6-5.6,6.9,3.9c8.2,4.7,21.6,10.3,38.7,10.6,16.6.3,29.8-4.5,38-8.6l5.4-2.7,5,3.3c23.5,15.2,45.8,17.1,57.4,12.2,2.8-1.2,5-2.8,6.4-4.6h0c4.1-5.6,2.9-16.3-.4-24-5.7-13.3-20.2-21.8-36.9-21.5l-9.9.2-.8-9.8c-1.5-19.2-6.5-32.1-13.6-35.6l-.7-.3c-8.7-3.8-19.7-3.5-32.5.8l-5.6,1.9-4.5-3.8c-8.6-7.2-18.3-12.3-28.8-15.2-23.1-6.3-41.2-4-53.7,6.6-11.5,9.7-14.9,23.8-15.9,31.4l-1.3,10-10.1-1c-1.4-.1-2.7-.2-4-.2h0Z"/>
  <path d="M315.7,211.5h-41.1l1.6,25.2h38.6v105.2h-31.8l1.2,19.2c.1,2,.2,4,0,6h31.4c13.4,0,24.3-10.9,24.3-24.3v-107.1c0-13.4-10.9-24.3-24.3-24.3h0Z"/>
  <path d="M293,152.4v33c0,4.3-3.5,7.7-7.7,7.7H51.5c-4.3,0-7.7-3.5-7.7-7.7v-38.4c15.4,12.3,37.1,12.6,41.7,12.7,29.4.5,49.2-18,53.7-22.5,7.2,4.1,22.7,11.5,43.7,11.9,20.3.4,35.5-6,42.9-9.7,25.9,16.8,51.7,19.6,67.2,13h0Z"/>
</svg>